<mxfile host="65bd71144e" modified="2020-11-06T03:20:11.192Z" agent="5.0 (Macintosh; Intel Mac OS X 10_15_7) AppleWebKit/537.36 (KHTML, like Gecko) Code/1.50.1 Chrome/83.0.4103.122 Electron/9.2.1 Safari/537.36" etag="cow2xgMHrA1PzaA4ni5x" version="13.6.5">
    <diagram id="AqpNFI58Y4qGcIaVm4HD" name="Page-1">
        <mxGraphModel dx="568" dy="1704" grid="1" gridSize="10" guides="1" tooltips="1" connect="1" arrows="1" fold="1" page="1" pageScale="1" pageWidth="827" pageHeight="1169" background="#F4F1DE" math="0" shadow="0">
            <root>
                <mxCell id="0"/>
                <mxCell id="1" parent="0"/>
                <mxCell id="6heXo4ZyJS-zPVavrucD-45" style="edgeStyle=orthogonalEdgeStyle;rounded=0;sketch=0;jumpSize=6;orthogonalLoop=1;jettySize=auto;html=1;entryX=0;entryY=0.5;entryDx=0;entryDy=0;startSize=6;endArrow=ERzeroToMany;endFill=1;strokeColor=#E07A5F;strokeWidth=1;fillColor=#F2CC8F;fontColor=#393C56;labelBackgroundColor=#F4F1DE;" parent="1" source="6heXo4ZyJS-zPVavrucD-4" target="6heXo4ZyJS-zPVavrucD-33" edge="1">
                    <mxGeometry relative="1" as="geometry"/>
                </mxCell>
                <mxCell id="6heXo4ZyJS-zPVavrucD-4" value="User" style="swimlane;fontStyle=0;childLayout=stackLayout;horizontal=1;startSize=26;horizontalStack=0;resizeParent=1;resizeParentMax=0;resizeLast=0;collapsible=1;marginBottom=0;align=center;fontSize=14;rounded=0;sketch=0;strokeColor=#E07A5F;fillColor=#F2CC8F;fontColor=#393C56;" parent="1" vertex="1">
                    <mxGeometry x="80" y="-960" width="160" height="146" as="geometry"/>
                </mxCell>
                <mxCell id="6heXo4ZyJS-zPVavrucD-5" value="- id" style="text;strokeColor=none;fillColor=none;spacingLeft=4;spacingRight=4;overflow=hidden;rotatable=0;points=[[0,0.5],[1,0.5]];portConstraint=eastwest;fontSize=12;fontColor=#393C56;" parent="6heXo4ZyJS-zPVavrucD-4" vertex="1">
                    <mxGeometry y="26" width="160" height="30" as="geometry"/>
                </mxCell>
                <mxCell id="6heXo4ZyJS-zPVavrucD-6" value="- nickname" style="text;strokeColor=none;fillColor=none;spacingLeft=4;spacingRight=4;overflow=hidden;rotatable=0;points=[[0,0.5],[1,0.5]];portConstraint=eastwest;fontSize=12;fontColor=#393C56;" parent="6heXo4ZyJS-zPVavrucD-4" vertex="1">
                    <mxGeometry y="56" width="160" height="30" as="geometry"/>
                </mxCell>
                <mxCell id="6heXo4ZyJS-zPVavrucD-7" value="- email" style="text;spacingLeft=4;spacingRight=4;overflow=hidden;rotatable=0;points=[[0,0.5],[1,0.5]];portConstraint=eastwest;fontSize=12;fontColor=#393C56;" parent="6heXo4ZyJS-zPVavrucD-4" vertex="1">
                    <mxGeometry y="86" width="160" height="30" as="geometry"/>
                </mxCell>
                <mxCell id="6heXo4ZyJS-zPVavrucD-11" value="- password" style="text;strokeColor=none;fillColor=none;spacingLeft=4;spacingRight=4;overflow=hidden;rotatable=0;points=[[0,0.5],[1,0.5]];portConstraint=eastwest;fontSize=12;fontColor=#393C56;" parent="6heXo4ZyJS-zPVavrucD-4" vertex="1">
                    <mxGeometry y="116" width="160" height="30" as="geometry"/>
                </mxCell>
                <mxCell id="6heXo4ZyJS-zPVavrucD-44" style="edgeStyle=orthogonalEdgeStyle;sketch=0;jumpSize=6;orthogonalLoop=1;jettySize=auto;html=1;entryX=1;entryY=0.5;entryDx=0;entryDy=0;startSize=6;endArrow=ERzeroToMany;endFill=1;strokeColor=#E07A5F;strokeWidth=1;fillColor=#F2CC8F;fontColor=#393C56;rounded=0;labelBackgroundColor=#F4F1DE;" parent="1" source="6heXo4ZyJS-zPVavrucD-12" target="6heXo4ZyJS-zPVavrucD-33" edge="1">
                    <mxGeometry relative="1" as="geometry"/>
                </mxCell>
                <mxCell id="6heXo4ZyJS-zPVavrucD-12" value="Tweet" style="swimlane;fontStyle=0;childLayout=stackLayout;horizontal=1;startSize=26;horizontalStack=0;resizeParent=1;resizeParentMax=0;resizeLast=0;collapsible=1;marginBottom=0;align=center;fontSize=14;rounded=0;sketch=0;strokeColor=#E07A5F;fillColor=#F2CC8F;fontColor=#393C56;" parent="1" vertex="1">
                    <mxGeometry x="480" y="-960" width="160" height="236" as="geometry"/>
                </mxCell>
                <mxCell id="6heXo4ZyJS-zPVavrucD-13" value="- id" style="text;strokeColor=none;fillColor=none;spacingLeft=4;spacingRight=4;overflow=hidden;rotatable=0;points=[[0,0.5],[1,0.5]];portConstraint=eastwest;fontSize=12;fontColor=#393C56;" parent="6heXo4ZyJS-zPVavrucD-12" vertex="1">
                    <mxGeometry y="26" width="160" height="30" as="geometry"/>
                </mxCell>
                <mxCell id="6heXo4ZyJS-zPVavrucD-14" value="- store" style="text;strokeColor=none;fillColor=none;spacingLeft=4;spacingRight=4;overflow=hidden;rotatable=0;points=[[0,0.5],[1,0.5]];portConstraint=eastwest;fontSize=12;fontColor=#393C56;" parent="6heXo4ZyJS-zPVavrucD-12" vertex="1">
                    <mxGeometry y="56" width="160" height="30" as="geometry"/>
                </mxCell>
                <mxCell id="6heXo4ZyJS-zPVavrucD-15" value="- prefecture" style="text;strokeColor=none;fillColor=none;spacingLeft=4;spacingRight=4;overflow=hidden;rotatable=0;points=[[0,0.5],[1,0.5]];portConstraint=eastwest;fontSize=12;fontColor=#393C56;" parent="6heXo4ZyJS-zPVavrucD-12" vertex="1">
                    <mxGeometry y="86" width="160" height="30" as="geometry"/>
                </mxCell>
                <mxCell id="6heXo4ZyJS-zPVavrucD-29" value="- station" style="text;strokeColor=none;fillColor=none;spacingLeft=4;spacingRight=4;overflow=hidden;rotatable=0;points=[[0,0.5],[1,0.5]];portConstraint=eastwest;fontSize=12;fontColor=#393C56;" parent="6heXo4ZyJS-zPVavrucD-12" vertex="1">
                    <mxGeometry y="116" width="160" height="30" as="geometry"/>
                </mxCell>
                <mxCell id="6heXo4ZyJS-zPVavrucD-28" value="- cat_name" style="text;strokeColor=none;fillColor=none;spacingLeft=4;spacingRight=4;overflow=hidden;rotatable=0;points=[[0,0.5],[1,0.5]];portConstraint=eastwest;fontSize=12;fontColor=#393C56;" parent="6heXo4ZyJS-zPVavrucD-12" vertex="1">
                    <mxGeometry y="146" width="160" height="30" as="geometry"/>
                </mxCell>
                <mxCell id="6heXo4ZyJS-zPVavrucD-30" value="- text" style="text;strokeColor=none;fillColor=none;spacingLeft=4;spacingRight=4;overflow=hidden;rotatable=0;points=[[0,0.5],[1,0.5]];portConstraint=eastwest;fontSize=12;fontColor=#393C56;" parent="6heXo4ZyJS-zPVavrucD-12" vertex="1">
                    <mxGeometry y="176" width="160" height="30" as="geometry"/>
                </mxCell>
                <mxCell id="6heXo4ZyJS-zPVavrucD-37" value="- user_id" style="text;strokeColor=none;fillColor=none;spacingLeft=4;spacingRight=4;overflow=hidden;rotatable=0;points=[[0,0.5],[1,0.5]];portConstraint=eastwest;fontSize=12;fontColor=#393C56;" parent="6heXo4ZyJS-zPVavrucD-12" vertex="1">
                    <mxGeometry y="206" width="160" height="30" as="geometry"/>
                </mxCell>
                <mxCell id="6heXo4ZyJS-zPVavrucD-31" value="Comment" style="swimlane;fontStyle=0;childLayout=stackLayout;horizontal=1;startSize=26;horizontalStack=0;resizeParent=1;resizeParentMax=0;resizeLast=0;collapsible=1;marginBottom=0;align=center;fontSize=14;rounded=0;sketch=0;strokeColor=#E07A5F;fillColor=#F2CC8F;fontColor=#393C56;" parent="1" vertex="1">
                    <mxGeometry x="240" y="-720" width="160" height="146" as="geometry"/>
                </mxCell>
                <mxCell id="6heXo4ZyJS-zPVavrucD-32" value="- id" style="text;strokeColor=none;fillColor=none;spacingLeft=4;spacingRight=4;overflow=hidden;rotatable=0;points=[[0,0.5],[1,0.5]];portConstraint=eastwest;fontSize=12;fontColor=#393C56;" parent="6heXo4ZyJS-zPVavrucD-31" vertex="1">
                    <mxGeometry y="26" width="160" height="30" as="geometry"/>
                </mxCell>
                <mxCell id="6heXo4ZyJS-zPVavrucD-33" value="- text" style="text;strokeColor=none;fillColor=none;spacingLeft=4;spacingRight=4;overflow=hidden;rotatable=0;points=[[0,0.5],[1,0.5]];portConstraint=eastwest;fontSize=12;fontColor=#393C56;" parent="6heXo4ZyJS-zPVavrucD-31" vertex="1">
                    <mxGeometry y="56" width="160" height="30" as="geometry"/>
                </mxCell>
                <mxCell id="6heXo4ZyJS-zPVavrucD-38" value="- user_id" style="text;strokeColor=none;fillColor=none;spacingLeft=4;spacingRight=4;overflow=hidden;rotatable=0;points=[[0,0.5],[1,0.5]];portConstraint=eastwest;fontSize=12;fontColor=#393C56;" parent="6heXo4ZyJS-zPVavrucD-31" vertex="1">
                    <mxGeometry y="86" width="160" height="30" as="geometry"/>
                </mxCell>
                <mxCell id="6heXo4ZyJS-zPVavrucD-39" value="- tweet_id" style="text;strokeColor=none;fillColor=none;spacingLeft=4;spacingRight=4;overflow=hidden;rotatable=0;points=[[0,0.5],[1,0.5]];portConstraint=eastwest;fontSize=12;fontColor=#393C56;" parent="6heXo4ZyJS-zPVavrucD-31" vertex="1">
                    <mxGeometry y="116" width="160" height="30" as="geometry"/>
                </mxCell>
                <mxCell id="6heXo4ZyJS-zPVavrucD-56" style="edgeStyle=orthogonalEdgeStyle;rounded=0;sketch=0;jumpSize=6;orthogonalLoop=1;jettySize=auto;html=1;entryX=0;entryY=0.5;entryDx=0;entryDy=0;startSize=6;endArrow=ERzeroToMany;endFill=1;strokeColor=#E07A5F;strokeWidth=1;fillColor=#F2CC8F;fontColor=#393C56;labelBackgroundColor=#F4F1DE;" parent="1" source="6heXo4ZyJS-zPVavrucD-6" target="6heXo4ZyJS-zPVavrucD-14" edge="1">
                    <mxGeometry relative="1" as="geometry"/>
                </mxCell>
            </root>
        </mxGraphModel>
    </diagram>
</mxfile>